<svg xmlns="http://www.w3.org/2000/svg" version="1.1" xmlns:xlink="http://www.w3.org/1999/xlink" xmlns:svgjs="http://svgjs.dev/svgjs" width="2000" height="1500" viewBox="0 0 2000 1500"><rect width="2000" height="1500" fill="#052560"></rect><g transform="matrix(0.75,0,0,0.75,248.16489361702133,326.07348444870286)"><svg viewBox="0 0 376 212" data-background-color="#052560" preserveAspectRatio="xMidYMid meet" height="1127" width="2000" xmlns="http://www.w3.org/2000/svg" xmlns:xlink="http://www.w3.org/1999/xlink"><g id="tight-bounds" transform="matrix(1,0,0,1,0.46023999999999887,0.32681749999996157)"><svg viewBox="0 0 375.07953 211.34674500000003" height="211.34674500000003" width="375.07953"><g><svg></svg></g><g><svg viewBox="0 0 375.07953 211.34674500000003" height="211.34674500000003" width="375.07953"><g transform="matrix(1,0,0,1,-10.22024,-28.54437999999999)"><path d="M10.22 218.656v-190.112h375.08v190.112h-136.003l0-6.957h129.046v-176.198h-361.166v176.198l5.177 0 0 6.957z" fill="#cef4eb" fill-rule="nonzero" stroke="none" stroke-width="1" stroke-linecap="butt" stroke-linejoin="miter" stroke-miterlimit="10" stroke-dasharray="" stroke-dashoffset="0" font-family="none" font-weight="none" font-size="none" text-anchor="none" style="mix-blend-mode: normal" data-fill-palette-color="tertiary"></path><g><path transform="translate(40.70218,227.282) scale(1.00873,1.00873)" d="M24.5 0h-22v-1.35l18.95-29.6h-17.3v-2h20.2v1.35l-19 29.6h19.15zM38.95 0.6v0c-1.433 0-2.8-0.283-4.1-0.85-1.3-0.567-2.44-1.383-3.42-2.45-0.987-1.067-1.77-2.377-2.35-3.93-0.587-1.547-0.88-3.32-0.88-5.32v0c0-2 0.293-3.79 0.88-5.37 0.58-1.587 1.363-2.913 2.35-3.98 0.98-1.067 2.12-1.883 3.42-2.45 1.3-0.567 2.667-0.85 4.1-0.85v0c1.433 0 2.81 0.283 4.13 0.85 1.313 0.567 2.463 1.383 3.45 2.45 0.98 1.067 1.763 2.393 2.35 3.98 0.58 1.58 0.87 3.37 0.87 5.37v0c0 2-0.29 3.773-0.87 5.32-0.587 1.553-1.37 2.863-2.35 3.93-0.987 1.067-2.137 1.883-3.45 2.45-1.32 0.567-2.697 0.85-4.13 0.85zM38.95-1.35v0c1.2 0 2.327-0.26 3.38-0.78 1.047-0.513 1.947-1.237 2.7-2.17 0.747-0.933 1.337-2.05 1.77-3.35 0.433-1.3 0.65-2.733 0.65-4.3v0c0-1.6-0.217-3.05-0.65-4.35-0.433-1.3-1.023-2.427-1.77-3.38-0.753-0.947-1.653-1.68-2.7-2.2-1.053-0.513-2.18-0.77-3.38-0.77v0c-1.2 0-2.317 0.257-3.35 0.77-1.033 0.52-1.923 1.253-2.67 2.2-0.753 0.953-1.347 2.08-1.78 3.38-0.433 1.3-0.65 2.75-0.65 4.35v0c0 1.567 0.217 3 0.65 4.3 0.433 1.3 1.027 2.417 1.78 3.35 0.747 0.933 1.637 1.657 2.67 2.17 1.033 0.52 2.15 0.78 3.35 0.78zM59.15 0h-2.2v-35.95h2.2v15.7c1.267-1.267 2.55-2.31 3.85-3.13 1.3-0.813 2.783-1.22 4.45-1.22v0c2.5 0 4.333 0.75 5.5 2.25 1.167 1.5 1.75 3.817 1.75 6.95v0 15.4h-2.2v-15.1c0-2.567-0.427-4.46-1.28-5.68-0.847-1.213-2.253-1.82-4.22-1.82v0c-1.433 0-2.733 0.373-3.9 1.12-1.167 0.753-2.483 1.88-3.95 3.38v0zM95.3 12.5h-1.8v-50h1.8zM122.6 0h-7.7v-32.95h7.65c2.533 0 4.743 0.383 6.63 1.15 1.88 0.767 3.437 1.867 4.67 3.3 1.233 1.433 2.15 3.15 2.75 5.15 0.6 2 0.9 4.25 0.9 6.75v0c0 2.5-0.3 4.773-0.9 6.82-0.6 2.053-1.517 3.803-2.75 5.25-1.233 1.453-2.783 2.57-4.65 3.35-1.867 0.787-4.067 1.18-6.6 1.18zM117.2-31v29.05h5.1c2.233 0 4.157-0.36 5.77-1.08 1.62-0.713 2.947-1.72 3.98-3.02 1.033-1.3 1.8-2.843 2.3-4.63 0.5-1.78 0.75-3.753 0.75-5.92v0c0-2.133-0.25-4.083-0.75-5.85-0.5-1.767-1.267-3.283-2.3-4.55-1.033-1.267-2.36-2.25-3.98-2.95-1.613-0.7-3.537-1.05-5.77-1.05v0zM153.95 0.6v0c-1.533 0-2.973-0.283-4.32-0.85-1.353-0.567-2.53-1.393-3.53-2.48-1-1.08-1.793-2.397-2.38-3.95-0.58-1.547-0.87-3.303-0.87-5.27v0c0-1.967 0.29-3.733 0.87-5.3 0.587-1.567 1.37-2.893 2.35-3.98 0.987-1.08 2.107-1.913 3.36-2.5 1.247-0.58 2.537-0.87 3.87-0.87v0c2.867 0 5.117 0.967 6.75 2.9 1.633 1.933 2.45 4.667 2.45 8.2v0c0 0.3 0 0.6 0 0.9 0 0.3-0.033 0.6-0.1 0.9v0h-17.3c0.033 1.5 0.267 2.89 0.7 4.17 0.433 1.287 1.043 2.387 1.83 3.3 0.78 0.92 1.72 1.637 2.82 2.15 1.1 0.52 2.333 0.78 3.7 0.78v0c1.3 0 2.477-0.193 3.53-0.58 1.047-0.38 2.02-0.903 2.92-1.57v0l0.9 1.7c-0.967 0.567-2.027 1.1-3.18 1.6-1.147 0.5-2.603 0.75-4.37 0.75zM145.1-13.5v0h15.3c0-3.1-0.633-5.41-1.9-6.93-1.267-1.513-2.983-2.27-5.15-2.27v0c-1.033 0-2.017 0.207-2.95 0.62-0.933 0.42-1.773 1.03-2.52 1.83-0.753 0.8-1.37 1.767-1.85 2.9-0.487 1.133-0.797 2.417-0.93 3.85zM177.2 0h-2.6l-9-24h2.4l5.4 15.05c0.367 1.167 0.767 2.333 1.2 3.5 0.433 1.167 0.833 2.3 1.2 3.4v0h0.2c0.4-1.1 0.807-2.233 1.22-3.4 0.42-1.167 0.83-2.333 1.23-3.5v0l5.4-15.05h2.25z" fill="#cef4eb" fill-rule="nonzero" stroke="none" stroke-width="1" stroke-linecap="butt" stroke-linejoin="miter" stroke-miterlimit="10" stroke-dasharray="" stroke-dashoffset="0" font-family="none" font-weight="none" font-size="none" text-anchor="none" style="mix-blend-mode: normal" data-fill-palette-color="secondary" id="text-1"></path></g></g><g transform="matrix(1,0,0,1,29.33176499999999,66.90967073578902)"><svg viewBox="0 0 316.416 77.52740352842198" height="77.52740352842198" width="316.416"><g><svg viewBox="0 0 502.1301130538742 123.030579675174" height="77.52740352842198" width="316.416"><g><rect width="11.039825515089968" height="123.030579675174" x="145.77422074535497" y="0" fill="#cef4eb" opacity="1" stroke-width="0" stroke="transparent" fill-opacity="1" class="rect-yte-0" data-fill-palette-color="primary" rx="1%" id="yte-0" data-palette-color="#cef4eb"></rect></g><g transform="matrix(1,0,0,1,185.71411305387417,0.3060462180974426)"><svg viewBox="0 0 316.416 122.41848723897911" height="122.41848723897911" width="316.416"><g id="textblocktransform"><svg viewBox="0 0 316.416 122.41848723897911" height="122.41848723897911" width="316.416" id="textblock"><g><svg viewBox="0 0 316.416 122.41848723897911" height="122.41848723897911" width="316.416"><g transform="matrix(1,0,0,1,0,0)"><svg width="316.416" viewBox="4.08 -32.03 84.17 32.57" height="122.41848723897911" data-palette-color="#cef4eb"><path d="M24.1-28.98Q24.93-28.98 25.28-28.6 25.63-28.22 25.63-27.32L25.63-27.32Q25.63-26.71 25.39-26.37L25.39-26.37 9.2-3.32 22.19-3.32 22.19-9.89Q22.19-10.74 22.61-11.11 23.02-11.47 24.02-11.47L24.02-11.47Q25.02-11.47 25.44-11.11 25.85-10.74 25.85-9.89L25.85-9.89 25.85-1.66Q25.85-0.76 25.5-0.38 25.15 0 24.32 0L24.32 0 5.62 0Q4.79 0 4.43-0.38 4.08-0.76 4.08-1.66L4.08-1.66Q4.08-2.2 4.42-2.71L4.42-2.71 20.51-25.66 8.25-25.66 8.25-19.58Q8.25-18.73 7.84-18.36 7.42-17.99 6.42-17.99L6.42-17.99Q5.42-17.99 5-18.36 4.59-18.73 4.59-19.58L4.59-19.58 4.59-27.32Q4.59-28.22 4.94-28.6 5.3-28.98 6.13-28.98L6.13-28.98 24.1-28.98ZM44.97-23.1Q48.31-23.1 51-21.58 53.68-20.07 55.21-17.37 56.74-14.67 56.74-11.28L56.74-11.28Q56.74-7.89 55.21-5.19 53.68-2.49 51-0.98 48.31 0.54 44.97 0.54L44.97 0.54Q41.62 0.54 38.94-0.98 36.25-2.49 34.73-5.19 33.2-7.89 33.2-11.28L33.2-11.28Q33.2-14.67 34.73-17.37 36.25-20.07 38.94-21.58 41.62-23.1 44.97-23.1L44.97-23.1ZM44.97-19.48Q42.6-19.48 40.81-18.44 39.01-17.41 38.03-15.54 37.06-13.67 37.06-11.28L37.06-11.28Q37.06-8.89 38.03-7.02 39.01-5.15 40.81-4.11 42.6-3.08 44.97-3.08L44.97-3.08Q47.34-3.08 49.13-4.11 50.93-5.15 51.9-7.02 52.88-8.89 52.88-11.28L52.88-11.28Q52.88-13.67 51.9-15.54 50.93-17.41 49.13-18.44 47.34-19.48 44.97-19.48L44.97-19.48ZM67.74-32.03Q68.57-32.03 68.93-31.65 69.28-31.27 69.28-30.37L69.28-30.37 69.28-18.21Q70.87-20.58 72.96-21.84 75.04-23.1 77.46-23.1L77.46-23.1Q79.68-23.1 81.32-22.13 82.95-21.17 83.83-19.36 84.71-17.55 84.71-15.14L84.71-15.14 84.71-3.32 86.71-3.32Q87.54-3.32 87.9-2.94 88.25-2.56 88.25-1.66L88.25-1.66Q88.25-0.76 87.9-0.38 87.54 0 86.71 0L86.71 0 78.8 0Q77.97 0 77.62-0.38 77.27-0.76 77.27-1.66L77.27-1.66Q77.27-2.56 77.62-2.94 77.97-3.32 78.8-3.32L78.8-3.32 81.05-3.32 81.05-14.77Q81.05-16.94 80.05-18.21 79.05-19.48 77.09-19.48L77.09-19.48Q75.02-19.48 73.22-18.29 71.43-17.09 70.36-14.99 69.28-12.89 69.28-10.3L69.28-10.3 69.28-3.32 71.53-3.32Q72.36-3.32 72.71-2.94 73.07-2.56 73.07-1.66L73.07-1.66Q73.07-0.76 72.71-0.38 72.36 0 71.53 0L71.53 0 63.62 0Q62.79 0 62.43-0.38 62.08-0.76 62.08-1.66L62.08-1.66Q62.08-2.56 62.43-2.94 62.79-3.32 63.62-3.32L63.62-3.32 65.62-3.32 65.62-28.71 63.37-28.71Q62.54-28.71 62.19-29.09 61.84-29.47 61.84-30.37L61.84-30.37Q61.84-31.27 62.19-31.65 62.54-32.03 63.37-32.03L63.37-32.03 67.74-32.03Z" opacity="1" transform="matrix(1,0,0,1,0,0)" fill="#cef4eb" class="wordmark-text-0" data-fill-palette-color="primary" id="text-0"></path></svg></g></svg></g></svg></g></svg></g><g transform="matrix(1,0,0,1,0,0.3060462180974497)"><svg viewBox="0 0 116.87415395192575 122.4184872389791" height="122.4184872389791" width="116.87415395192575"><g><svg version="1.0" xmlns="http://www.w3.org/2000/svg" xmlns:xlink="http://www.w3.org/1999/xlink" x="0" y="0" viewBox="0 0 95.471 100" enable-background="new 0 0 95.471 100" xml:space="preserve" id="icon-0" width="116.87415395192575" height="122.4184872389791" class="icon-icon-0" data-fill-palette-color="accent"><path d="M47.735 0C47.652 2.825 45.997 13.412 27.936 30.934 10.554 47.797 2.439 49.824 0 50 2.439 50.178 10.554 52.204 27.936 69.066 45.997 86.589 47.652 97.177 47.735 100 47.818 97.177 49.474 86.589 67.533 69.066 84.917 52.204 93.031 50.178 95.471 50 93.032 49.824 84.917 47.797 67.533 30.934 49.475 13.412 47.819 2.825 47.735 0" fill="#cef4eb" data-fill-palette-color="accent"></path></svg></g></svg></g></svg></g></svg></g></svg></g><defs></defs></svg><rect width="375.07953" height="211.34674500000003" fill="none" stroke="none" visibility="hidden"></rect></g></svg></g></svg>